<svg width="512" height="512" viewBox="0 0 512 512" fill="#fff" xmlns="http://www.w3.org/2000/svg">
<path d="M164.909 358.459C158.059 357.942 151.726 354.581 147.435 349.127L57.8691 234.979L147.435 120.804C152.114 114.859 159.222 111.395 166.796 111.395H267.4L164.909 358.459ZM137.716 64.1697C127.247 64.1697 117.399 68.9775 110.937 77.1716L10.1004 205.692C-3.36681 222.881 -3.36681 247.05 10.1004 264.24L110.937 392.76C117.399 400.954 127.247 405.762 137.716 405.762H189.104L326.154 75.3105L330.781 64.1697H137.716Z" />
<path d="M364.564 391.365C359.886 397.31 352.777 400.774 345.204 400.774H244.574L347.039 153.737C352.415 154.125 357.482 156.27 361.463 159.811C362.6 160.768 363.634 161.828 364.564 163.042L454.131 277.217L364.564 391.365ZM501.899 247.93L401.063 119.41C396.488 113.568 390.155 109.458 383.15 107.597C380.28 106.821 377.308 106.408 374.284 106.408H322.87L181.193 448H374.284C384.752 448 394.601 443.192 401.063 434.998L501.899 306.478C515.367 289.288 515.367 265.12 501.899 247.93Z" />
</svg>
